<?xml version="1.0" encoding="utf-8"?>
<!-- Generator: Adobe Illustrator 17.0.0, SVG Export Plug-In . SVG Version: 6.00 Build 0)  -->
<!DOCTYPE svg PUBLIC "-//W3C//DTD SVG 1.1//EN" "http://www.w3.org/Graphics/SVG/1.1/DTD/svg11.dtd">
<svg version="1.1" id="Layer_1" xmlns="http://www.w3.org/2000/svg" xmlns:xlink="http://www.w3.org/1999/xlink" x="0px" y="0px"
	 width="116.991px" height="116.991px" viewBox="0 0 116.991 116.991" enable-background="new 0 0 116.991 116.991"
	 xml:space="preserve">
<g>
	<path fill="#E5E6E6" d="M58.495,2.1c31.097,0,56.396,25.298,56.396,56.395c0,31.097-25.299,56.396-56.396,56.396
		C27.399,114.891,2.1,89.592,2.1,58.495C2.1,27.398,27.399,2.1,58.495,2.1 M58.495,0C26.189,0,0,26.189,0,58.495
		c0,32.306,26.189,58.496,58.495,58.496s58.495-26.19,58.495-58.496C116.991,26.189,90.801,0,58.495,0L58.495,0z"/>
</g>
<g>
	<path fill="#0DB288" d="M58.495,8.12c27.821,0,50.375,22.554,50.375,50.375c0,27.822-22.554,50.375-50.375,50.375
		c-27.821,0-50.375-22.554-50.375-50.375C8.12,30.674,30.674,8.12,58.495,8.12z"/>
</g>
<g>
	<path fill="#FFFFFF" d="M35.632,67.265c-4.461,5.369-6.906,9.914-7.463,11.002c-0.386,0.75-0.096,1.677,0.648,2.067
		c0.11,0.058,0.224,0.101,0.338,0.129c0.664,0.165,1.378-0.14,1.708-0.78c0.813-1.582,5.84-10.892,15.51-18.9
		c0.147,0.023,0.298,0.031,0.452,0.008c6.886-1.027,13.656,2.405,13.723,2.44c0.747,0.379,1.661,0.086,2.04-0.667
		c0.378-0.754,0.084-1.676-0.663-2.063c-0.25-0.129-5.19-2.645-11.266-2.941c5.105-3.481,11.223-6.414,18.411-7.879
		c0.821-0.167,1.351-0.976,1.183-1.805c-0.168-0.832-0.973-1.37-1.79-1.201c-4.554,0.928-8.693,2.419-12.446,4.249l2.021-3.567
		c0.415-0.734,0.163-1.672-0.564-2.093c-0.723-0.421-1.652-0.169-2.07,0.564l-4.067,7.177c-0.109,0.189-0.169,0.392-0.19,0.597
		c-5.284,3.269-9.622,7.149-13.056,10.865c-0.945-5.137-0.041-10.281,2.621-14.668c2.957-4.872,7.831-8.417,13.041-9.481
		c9.664-1.973,18.928,0.014,29.614,3.788c-1.561,1.544-3.241,3.255-4.24,4.354c-3.868,4.252-6.379,9.348-8.431,13.792
		c-2.332,5.053-6.363,8.906-11.057,10.568c-5.08,1.799-10.742,1.172-16.825-1.864c-0.754-0.369-1.663-0.064-2.03,0.694
		c-0.371,0.761-0.059,1.68,0.692,2.054c2.155,1.074,4.299,1.878,6.406,2.404c4.49,1.123,8.821,1,12.764-0.397
		c5.54-1.96,10.086-6.279,12.799-12.158c1.956-4.236,4.341-9.084,7.918-13.016c1.351-1.491,4.028-4.169,5.858-5.932l1.769-1.703
		l-2.3-0.848c-9.792-3.609-21.269-7.251-33.549-4.742c-6.018,1.23-11.632,5.297-15.019,10.879
		c-3.433,5.655-4.331,12.392-2.532,18.971C35.603,67.197,35.62,67.23,35.632,67.265z"/>
</g>
</svg>
