<?xml version="1.0" encoding="utf-8"?>
<!-- Generator: Adobe Illustrator 17.0.0, SVG Export Plug-In . SVG Version: 6.00 Build 0)  -->
<!DOCTYPE svg PUBLIC "-//W3C//DTD SVG 1.1//EN" "http://www.w3.org/Graphics/SVG/1.1/DTD/svg11.dtd">
<svg version="1.1" id="Layer_1" xmlns="http://www.w3.org/2000/svg" xmlns:xlink="http://www.w3.org/1999/xlink" x="0px" y="0px"
	 width="116.991px" height="116.991px" viewBox="0 0 116.991 116.991" enable-background="new 0 0 116.991 116.991"
	 xml:space="preserve">
<g>
	<path fill="#E5E6E6" d="M58.495,2.1c31.097,0,56.396,25.298,56.396,56.395c0,31.097-25.299,56.396-56.396,56.396
		C27.399,114.891,2.1,89.592,2.1,58.495C2.1,27.398,27.399,2.1,58.495,2.1 M58.495,0C26.189,0,0,26.189,0,58.495
		c0,32.306,26.189,58.495,58.495,58.495s58.495-26.19,58.495-58.495C116.991,26.189,90.801,0,58.495,0L58.495,0z"/>
</g>
<g>
	<path fill="#0DB288" d="M58.495,8.12c27.821,0,50.375,22.554,50.375,50.375c0,27.822-22.554,50.375-50.375,50.375
		c-27.821,0-50.375-22.554-50.375-50.375C8.12,30.674,30.674,8.12,58.495,8.12z"/>
</g>
<g>
	<path fill="#FFFFFF" d="M37.29,51.733c3.66,0,6.627-2.967,6.627-6.626c0-0.732-0.593-1.326-1.325-1.326
		c-0.732,0-1.325,0.594-1.325,1.326c0,2.195-1.78,3.975-3.976,3.975s-3.976-1.78-3.976-3.975c0-0.732-0.593-1.326-1.325-1.326
		c-0.732,0-1.325,0.594-1.325,1.326C30.664,48.767,33.631,51.733,37.29,51.733z"/>
	<path fill="#FFFFFF" d="M35.925,35.097c0.178-0.71-0.254-1.43-0.964-1.608c-0.71-0.177-1.43,0.255-1.607,0.965l-2.651,10.33
		c-0.177,0.71,0.254,1.43,0.964,1.607c0.71,0.178,1.43-0.255,1.607-0.964L35.925,35.097z"/>
	<path fill="#FFFFFF" d="M45.232,34.94c0.091-0.727-0.424-1.389-1.151-1.48c-0.726-0.091-1.389,0.424-1.48,1.15l-1.325,10.331
		c-0.091,0.727,0.424,1.389,1.151,1.48c0.726,0.091,1.389-0.424,1.479-1.15L45.232,34.94z"/>
	<path fill="#FFFFFF" d="M74.389,34.611c-0.091-0.726-0.753-1.241-1.48-1.15c-0.726,0.091-1.242,0.753-1.151,1.48l1.325,10.331
		c0.091,0.726,0.753,1.242,1.48,1.15c0.726-0.09,1.241-0.753,1.151-1.48L74.389,34.611z"/>
	<path fill="#FFFFFF" d="M83.637,34.454c-0.178-0.71-0.897-1.142-1.607-0.965c-0.71,0.178-1.142,0.898-0.964,1.608l2.651,10.331
		c0.178,0.709,0.897,1.142,1.607,0.964c0.71-0.177,1.142-0.897,0.964-1.607L83.637,34.454z"/>
	<path fill="#FFFFFF" d="M47.893,51.733c3.66,0,6.626-2.967,6.626-6.626c0-0.732-0.593-1.326-1.325-1.326
		c-0.732,0-1.325,0.594-1.325,1.326c0,2.195-1.78,3.975-3.976,3.975s-3.976-1.78-3.976-3.975c0-0.732-0.593-1.326-1.325-1.326
		c-0.732,0-1.325,0.594-1.325,1.326C41.266,48.767,44.233,51.733,47.893,51.733z"/>
	<path fill="#FFFFFF" d="M58.495,51.733c3.66,0,6.627-2.967,6.627-6.626c0-0.732-0.593-1.326-1.325-1.326
		c-0.732,0-1.325,0.594-1.325,1.326c0,2.195-1.78,3.975-3.976,3.975s-3.976-1.78-3.976-3.975c0-0.732-0.593-1.326-1.325-1.326
		c-0.732,0-1.325,0.594-1.325,1.326C51.869,48.767,54.836,51.733,58.495,51.733z"/>
	<path fill="#FFFFFF" d="M69.098,51.733c3.66,0,6.627-2.967,6.627-6.626c0-0.732-0.593-1.326-1.325-1.326
		c-0.732,0-1.325,0.594-1.325,1.326c0,2.195-1.78,3.975-3.976,3.975c-2.196,0-3.976-1.78-3.976-3.975
		c0-0.732-0.593-1.326-1.325-1.326c-0.732,0-1.325,0.594-1.325,1.326C62.471,48.767,65.438,51.733,69.098,51.733z"/>
	<path fill="#FFFFFF" d="M79.701,51.733c3.66,0,6.627-2.967,6.627-6.626c0-0.732-0.593-1.326-1.325-1.326
		c-0.732,0-1.325,0.594-1.325,1.326c0,2.195-1.78,3.975-3.976,3.975c-2.196,0-3.976-1.78-3.976-3.975
		c0-0.732-0.593-1.326-1.325-1.326c-0.732,0-1.325,0.594-1.325,1.326C73.074,48.767,76.041,51.733,79.701,51.733z"/>
	<path fill="#FFFFFF" d="M82.329,33.45H34.661c-0.744,0-1.347,0.615-1.347,1.326c0,0.731,0.601,1.733,1.347,1.733h47.668
		c0.744,0,1.347-1.023,1.347-1.733C83.676,34.044,83.076,33.45,82.329,33.45z"/>
	<path fill="#FFFFFF" d="M83.676,80.894c0,1.462-1.195,2.647-2.637,2.647H36.155c-1.456,0-2.637-1.186-2.637-2.647V49.082h2.99
		v31.469H80.55V49.082h3.126V80.894z"/>
	<path fill="#FFFFFF" d="M74.521,83.541h3.058v-27.05H62.471v27.05h3.058V59.549h8.991V83.541z"/>
	<path fill="#FFFFFF" d="M51.597,33.45h2.922v12.981h-2.99L51.597,33.45z"/>
	<path fill="#FFFFFF" d="M62.471,33.45h2.99v12.981h-2.99V33.45z"/>
	<path fill="#FFFFFF" d="M40.539,56.496h16.016v16.058H40.539V56.496z"/>
</g>
</svg>
