<?xml version="1.0" encoding="utf-8"?>
<!-- Generator: Adobe Illustrator 17.0.0, SVG Export Plug-In . SVG Version: 6.00 Build 0)  -->
<!DOCTYPE svg PUBLIC "-//W3C//DTD SVG 1.1//EN" "http://www.w3.org/Graphics/SVG/1.1/DTD/svg11.dtd">
<svg version="1.1" id="Layer_1" xmlns="http://www.w3.org/2000/svg" xmlns:xlink="http://www.w3.org/1999/xlink" x="0px" y="0px"
	 width="116.991px" height="116.991px" viewBox="0 0 116.991 116.991" enable-background="new 0 0 116.991 116.991"
	 xml:space="preserve">
<g>
	<path fill="#E5E6E6" d="M58.495,2.1c31.097,0,56.396,25.298,56.396,56.395c0,31.097-25.299,56.396-56.396,56.396
		C27.399,114.891,2.1,89.592,2.1,58.495C2.1,27.398,27.399,2.1,58.495,2.1 M58.495,0C26.189,0,0,26.189,0,58.495
		c0,32.306,26.189,58.495,58.495,58.495s58.495-26.19,58.495-58.495C116.991,26.189,90.801,0,58.495,0L58.495,0z"/>
</g>
<g>
	<path fill="#0DB288" d="M58.495,8.12c27.821,0,50.375,22.554,50.375,50.375c0,27.822-22.554,50.375-50.375,50.375
		c-27.821,0-50.375-22.554-50.375-50.375C8.12,30.674,30.674,8.12,58.495,8.12z"/>
</g>
<g>
	<path fill="#FFFFFF" d="M81.168,34.5H64.786c-0.74,0-1.337,0.597-1.337,1.336v8.673h-6.644c-0.74,0-1.337,0.598-1.337,1.337
		c0,0.74,0.597,1.63,1.337,1.63h8.321c0.74,0,1.337-0.597,1.337-1.337v-8.625h13.028V51.49h-12.92c-0.74,0-1.093,0.792-1.093,1.532
		c0,0.739,0.354,1.483,1.093,1.483h1.911v6.647c0,0.739,0.728,1.337,1.468,1.337c0.74,0,1.555-0.597,1.555-1.337v-6.647h7.993
		v24.998H65.51v-8.705c0-0.738-0.743-1.336-1.483-1.336c-0.739,0-1.532,0.598-1.532,1.336v8.662h-6.008V63.831
		c0-0.739-0.597-1.336-1.337-1.336h-5.749c-0.74,0-0.996,0.695-0.996,1.434c0,0.74,0.257,1.532,0.996,1.532h3.925v14.009H37.509
		v-5.925h5.954v2.633c0,0.74,0.792,1.337,1.532,1.337c0.739,0,1.483-0.597,1.483-1.337v-4.359c0-0.74-0.597-1.337-1.337-1.337
		h-7.676V57.505h17.928c0.74,0,1.206-0.727,1.206-1.468c0-0.74-0.466-1.555-1.206-1.555h-5.928v-8.685
		c0-0.739-0.792-1.336-1.532-1.336c-0.74,0-1.434,0.597-1.434,1.336v8.685H35.823c-0.74,0-1.337,0.598-1.337,1.337v25.335
		c0,0.739,0.597,1.336,1.337,1.336h45.345c0.739,0,1.337-0.598,1.337-1.336V35.836C82.504,35.097,81.907,34.5,81.168,34.5z"/>
</g>
</svg>
