<?xml version="1.0" encoding="utf-8"?>
<!-- Generator: Adobe Illustrator 17.0.0, SVG Export Plug-In . SVG Version: 6.00 Build 0)  -->
<!DOCTYPE svg PUBLIC "-//W3C//DTD SVG 1.1//EN" "http://www.w3.org/Graphics/SVG/1.1/DTD/svg11.dtd">
<svg version="1.1" id="Layer_1" xmlns="http://www.w3.org/2000/svg" xmlns:xlink="http://www.w3.org/1999/xlink" x="0px" y="0px"
	 width="116.991px" height="116.991px" viewBox="0 0 116.991 116.991" enable-background="new 0 0 116.991 116.991"
	 xml:space="preserve">
<g>
	<path fill="#E5E6E6" d="M58.495,2.1c31.097,0,56.396,25.298,56.396,56.395c0,31.097-25.299,56.396-56.396,56.396
		C27.399,114.891,2.1,89.592,2.1,58.495C2.1,27.398,27.399,2.1,58.495,2.1 M58.495,0C26.189,0,0,26.189,0,58.495
		c0,32.306,26.189,58.495,58.495,58.495s58.495-26.19,58.495-58.495C116.991,26.189,90.801,0,58.495,0L58.495,0z"/>
</g>
<g>
	<path fill="#0DB288" d="M58.495,8.12c27.821,0,50.375,22.554,50.375,50.375c0,27.822-22.554,50.375-50.375,50.375
		c-27.821,0-50.375-22.554-50.375-50.375C8.12,30.674,30.674,8.12,58.495,8.12z"/>
</g>
<g>
	<path fill="#FFFFFF" d="M84.583,83.257H74.564v-4.824h10.018c1.381,0,1.995-1.688,1.151-2.532l-6.675-7.716h3.299l0,0
		c1.458,0,1.995-1.765,1.074-2.686L77.6,58.44h3.606l0,0c1.458,0,1.995-1.764,1.074-2.685l-8.44-10.282
		c-0.614-0.691-1.765-0.691-2.379,0l-8.594,10.435c-0.844,0.998-0.077,2.609,1.151,2.532h3.606l-5.908,7.213
		c-0.844,1.074,0,2.532,1.151,2.532h3.299l-6.675,7.716c-0.767,0.844-0.153,2.456,1.151,2.532h10.512v4.824H48.52V62.814
		c8.133-0.768,14.579-7.674,14.579-16.037c0-8.9-7.213-16.113-16.113-16.113s-16.113,7.213-16.113,16.113
		c0,8.364,6.369,15.269,14.579,16.037v20.443H32.407c-0.844,0-1.535,0.691-1.535,1.535c0,0.843,0.691,1.535,1.535,1.535h52.176
		c0.844,0,1.535-0.692,1.535-1.535C86.117,83.948,85.427,83.257,84.583,83.257z M46.985,39.257c-0.844,0-1.535,0.69-1.535,1.535
		v7.367l-3.76-1.995c-0.767-0.383-1.688-0.077-2.072,0.613c-0.384,0.768-0.077,1.689,0.614,2.072l5.218,2.686v8.133
		c-6.445-0.766-11.509-6.291-11.509-12.891c0-7.212,5.832-13.044,13.044-13.044c7.213,0,13.044,5.832,13.044,13.044
		c0,6.676-5.064,12.125-11.509,12.891v-2.992l5.218-2.686c0.767-0.383,1.074-1.304,0.614-2.072
		c-0.383-0.767-1.304-1.074-2.072-0.614l-3.76,1.995v-6.828l5.218-2.686c0.767-0.383,1.074-1.304,0.614-2.071
		c-0.383-0.768-1.304-1.074-2.072-0.614l-3.76,1.995v-2.225C48.52,39.948,47.829,39.257,46.985,39.257z M63.942,75.364l6.676-7.716
		c0.844-0.921,0.153-2.533-1.151-2.533h-3.299l5.908-7.212c0.767-0.921,0.153-2.533-1.151-2.533h-3.606l5.294-6.522l5.294,6.522
		h-3.606c-1.381,0-1.995,1.535-1.151,2.533l5.908,7.212h-3.299c-1.304,0-1.995,1.535-1.151,2.533l6.675,7.716H63.942L63.942,75.364z
		"/>
</g>
</svg>
