<?xml version="1.0" encoding="utf-8"?>
<!-- Generator: Adobe Illustrator 17.0.0, SVG Export Plug-In . SVG Version: 6.00 Build 0)  -->
<!DOCTYPE svg PUBLIC "-//W3C//DTD SVG 1.1//EN" "http://www.w3.org/Graphics/SVG/1.1/DTD/svg11.dtd">
<svg version="1.1" id="Layer_1" xmlns="http://www.w3.org/2000/svg" xmlns:xlink="http://www.w3.org/1999/xlink" x="0px" y="0px"
	 width="116.991px" height="116.991px" viewBox="0 0 116.991 116.991" enable-background="new 0 0 116.991 116.991"
	 xml:space="preserve">
<g>
	<path fill="#E5E6E6" d="M58.495,2.1c31.097,0,56.396,25.298,56.396,56.395c0,31.097-25.299,56.396-56.396,56.396
		C27.399,114.891,2.1,89.592,2.1,58.495C2.1,27.398,27.399,2.1,58.495,2.1 M58.495,0C26.189,0,0,26.189,0,58.495
		c0,32.306,26.189,58.495,58.495,58.495s58.495-26.19,58.495-58.495C116.991,26.189,90.801,0,58.495,0L58.495,0z"/>
</g>
<g>
	<path fill="#0DB288" d="M58.495,8.12c27.821,0,50.375,22.554,50.375,50.375c0,27.822-22.554,50.375-50.375,50.375
		c-27.821,0-50.375-22.554-50.375-50.375C8.12,30.674,30.674,8.12,58.495,8.12z"/>
</g>
<g>
	<path fill="#FFFFFF" d="M72.837,64.754c0.373-0.903,1.407-1.335,2.31-0.961c0.903,0.372,1.334,1.407,0.961,2.31
		c-0.372,0.903-1.407,1.332-2.31,0.961C72.895,66.691,72.465,65.656,72.837,64.754z"/>
	<path fill="#FFFFFF" d="M67.786,64.507l-11.547-4.75c-0.838-0.372-1.304-1.396-0.931-2.234l0,0
		c0.373-0.839,1.397-1.304,2.235-0.932l11.547,4.749c0.838,0.372,1.304,1.397,0.931,2.235l0,0
		C69.648,64.507,68.717,64.88,67.786,64.507z"/>
	<path fill="#FFFFFF" d="M94.324,53.053c0-0.559-0.373-1.025-0.838-1.21L44.041,31.45c-0.745-0.28-1.583,0-1.862,0.745l-4.47,10.802
		l0,0l-4.842,11.825c-0.186,0.373-0.186,0.745,0,1.117c0.186,0.373,0.465,0.653,0.745,0.746l22.534,9.312l-6.798,6.796
		c-1.397,0-2.793,0.738-3.818,1.855c0,0,0,0,0,0.093H27.931c-0.745,0-1.397,0.652-1.397,1.397v4.232
		c0,0.745,0.652,1.397,1.397,1.397h17.599c0,0,0,0.151,0,0.245c1.024,1.024,2.328,1.583,3.818,1.583c1.49,0,2.794-0.558,3.818-1.583
		c1.024-1.025,1.583-2.328,1.583-3.817c0,0,0,0,0-0.093l8.939-8.94l15.644,6.425c0.186,0.093,0.373,0.093,0.559,0.093
		c0.186,0,0.373,0,0.559-0.093c0.373-0.187,0.652-0.466,0.745-0.745l1.676-4.004l2.421,1.024c0.186,0.093,0.373,0.093,0.559,0.093
		c0.559,0,1.117-0.372,1.304-0.838l2.7-6.518c0.279-0.746,0-1.583-0.745-1.863l-2.421-1.025l1.583-3.911l5.494-3.259
		C94.138,54.078,94.417,53.519,94.324,53.053z M28.546,79.654v-2.893h15.587c-0.093,0.28-0.093,1.651-0.093,2.023
		c0,0.28,0,0.59,0.093,0.962H28.546V79.654z M51.118,79.871c-0.466,0.466-1.117,0.745-1.769,0.745c-0.652,0-1.304-0.279-1.769-0.745
		c-0.466-0.466-0.745-1.117-0.745-1.769c0-0.652,0.279-1.304,0.745-1.77c0.466-0.465,1.117-0.745,1.769-0.745
		c0.652,0,1.304,0.279,1.769,0.745l0,0c0.466,0.466,0.745,1.118,0.745,1.77C51.863,78.754,51.583,79.405,51.118,79.871z
		 M53.725,75.029c-0.186-0.279-0.372-0.466-0.559-0.651c-0.186-0.187-0.466-0.372-0.652-0.558l6.611-6.612l1.769,0.744
		L53.725,75.029z M86.688,64.693l-1.583,3.911l-1.117-0.466l1.583-3.911L86.688,64.693z M83.429,61.806L83.429,61.806l-2.7,6.518
		l0,0l-1.676,4.004l-43.02-17.785l3.818-9.218l40.133,16.575c0.186,0.093,0.372,0.093,0.559,0.093c0.279,0,0.465-0.093,0.745-0.186
		l2.98-1.769L83.429,61.806z M80.356,59.013L40.875,42.717l3.352-8.194l45.534,18.81L80.356,59.013z"/>
</g>
</svg>
