<?xml version="1.0" encoding="utf-8"?>
<!-- Generator: Adobe Illustrator 17.0.0, SVG Export Plug-In . SVG Version: 6.00 Build 0)  -->
<!DOCTYPE svg PUBLIC "-//W3C//DTD SVG 1.1//EN" "http://www.w3.org/Graphics/SVG/1.1/DTD/svg11.dtd">
<svg version="1.1" id="Layer_1" xmlns="http://www.w3.org/2000/svg" xmlns:xlink="http://www.w3.org/1999/xlink" x="0px" y="0px"
	 width="116.991px" height="116.991px" viewBox="0 0 116.991 116.991" enable-background="new 0 0 116.991 116.991"
	 xml:space="preserve">
<g>
	<path fill="#E5E6E6" d="M58.495,2.1c31.097,0,56.396,25.298,56.396,56.395c0,31.097-25.299,56.396-56.396,56.396
		C27.399,114.891,2.1,89.592,2.1,58.495C2.1,27.398,27.399,2.1,58.495,2.1 M58.495,0C26.189,0,0,26.189,0,58.495
		c0,32.306,26.189,58.496,58.495,58.496s58.495-26.19,58.495-58.496C116.991,26.189,90.801,0,58.495,0L58.495,0z"/>
</g>
<g>
	<path fill="#0DB288" d="M58.495,8.12c27.821,0,50.375,22.554,50.375,50.375c0,27.822-22.554,50.375-50.375,50.375
		c-27.821,0-50.375-22.554-50.375-50.375C8.12,30.674,30.674,8.12,58.495,8.12z"/>
</g>
<g>
	<rect x="33.25" y="65.816" fill="#FFFFFF" width="5" height="5"/>
	<rect x="33.25" y="55.816" fill="#FFFFFF" width="5" height="5"/>
	<polygon fill="#FFFFFF" points="50.883,55.816 51.25,55.816 51.25,60.816 50.883,60.816 55.954,60.816 56.25,60.816 56.25,55.816 
		55.954,55.816 	"/>
	<polygon fill="#FFFFFF" points="50.883,65.816 51.25,65.816 51.25,70.816 50.883,70.816 55.954,70.816 56.25,70.816 56.25,65.816 
		55.954,65.816 	"/>
	<polygon fill="#FFFFFF" points="60.036,65.816 60.25,65.816 60.25,70.816 60.036,70.816 65.107,70.816 65.25,70.816 65.25,65.816 
		65.107,65.816 	"/>
	<polygon fill="#FFFFFF" points="60.036,55.816 60.25,55.816 60.25,60.816 60.036,60.816 65.107,60.816 65.25,60.816 65.25,55.816 
		65.107,55.816 	"/>
	<path fill="#FFFFFF" d="M88.952,47.816H73.25v-7.258c0-1.409-0.665-2.742-2.061-2.742h-0.005H45.806h-0.005
		c-1.396,0-2.338,1.162-2.338,2.571l-0.014,7.429H28.038c-1.396,0-2.788,1.315-2.788,2.724v25.893c0,1.409,1.392,2.383,2.788,2.383
		h17.763H71.19h17.763c1.396,0,2.298-0.974,2.298-2.383V50.607C91.25,49.197,90.348,47.816,88.952,47.816z M28.25,75.816v-25h15
		v22.367l0.147,2.633H28.25z M46.25,75.816V55.932V40.816h24v15.117v19.883H46.25z M88.25,75.816h-15v-25h15V75.816z"/>
	<polygon fill="#FFFFFF" points="60.036,45.816 60.25,45.816 60.25,50.816 60.036,50.816 65.107,50.816 65.25,50.816 65.25,45.816 
		65.107,45.816 	"/>
	<polygon fill="#FFFFFF" points="50.883,45.816 51.25,45.816 51.25,50.816 50.883,50.816 55.954,50.816 56.25,50.816 56.25,45.816 
		55.954,45.816 	"/>
	<rect x="78.25" y="65.816" fill="#FFFFFF" width="5" height="5"/>
	<rect x="78.25" y="55.816" fill="#FFFFFF" width="5" height="5"/>
</g>
</svg>
