<?xml version="1.0" encoding="utf-8"?>
<!-- Generator: Adobe Illustrator 17.0.0, SVG Export Plug-In . SVG Version: 6.00 Build 0)  -->
<!DOCTYPE svg PUBLIC "-//W3C//DTD SVG 1.1//EN" "http://www.w3.org/Graphics/SVG/1.1/DTD/svg11.dtd">
<svg version="1.1" id="Layer_1" xmlns="http://www.w3.org/2000/svg" xmlns:xlink="http://www.w3.org/1999/xlink" x="0px" y="0px"
	 width="116.991px" height="116.991px" viewBox="0 0 116.991 116.991" enable-background="new 0 0 116.991 116.991"
	 xml:space="preserve">
<g>
	<path fill="#E5E6E6" d="M58.495,2.1c31.097,0,56.396,25.298,56.396,56.395c0,31.097-25.299,56.396-56.396,56.396
		C27.399,114.891,2.1,89.592,2.1,58.495C2.1,27.398,27.399,2.1,58.495,2.1 M58.495,0C26.189,0,0,26.189,0,58.495
		c0,32.306,26.189,58.496,58.495,58.496s58.495-26.19,58.495-58.496C116.991,26.189,90.801,0,58.495,0L58.495,0z"/>
</g>
<g>
	<path fill="#0DB288" d="M58.495,8.12c27.821,0,50.375,22.554,50.375,50.375c0,27.822-22.554,50.375-50.375,50.375
		c-27.821,0-50.375-22.554-50.375-50.375C8.12,30.674,30.674,8.12,58.495,8.12z"/>
</g>
<path fill="#FFFFFF" d="M58.006,29.947c8.296,0,15.045,6.75,15.045,15.045c0,5.744-8.503,17.613-15.046,25.268
	c-6.542-7.652-15.044-19.518-15.044-25.268C42.962,36.697,49.711,29.947,58.006,29.947 M58.006,54.388
	c5.181,0,9.395-4.215,9.395-9.396c0-5.18-4.215-9.395-9.395-9.395c-5.181,0-9.395,4.214-9.395,9.395
	C48.611,50.173,52.826,54.388,58.006,54.388 M58.006,27.07c-9.898,0-17.923,8.024-17.923,17.922
	c0,9.898,17.923,29.624,17.923,29.624S75.929,54.89,75.929,44.992C75.929,35.093,67.905,27.07,58.006,27.07L58.006,27.07z
	 M58.006,51.51c-3.599,0-6.517-2.918-6.517-6.518s2.918-6.517,6.517-6.517c3.6,0,6.518,2.917,6.518,6.517S61.606,51.51,58.006,51.51
	L58.006,51.51z M89.968,83.186c-0.255,0.454-0.734,0.735-1.255,0.735H28.278c-0.521,0-1-0.281-1.255-0.735
	c-0.254-0.454-0.244-1.011,0.027-1.454L37.602,64.59c0.261-0.429,0.727-0.689,1.228-0.689h5.991c0.69,0.989,1.385,2.139,2.074,3.065
	h-7.258l-8.793,13.952h55.304l-8.793-14.014h-8.236c0.689-0.927,1.384-2.077,2.074-3.066h6.969c0.501,0,0.967,0.261,1.228,0.689
	l10.552,17.205C90.212,82.176,90.222,82.732,89.968,83.186z"/>
</svg>
