<?xml version="1.0" encoding="utf-8"?>
<!-- Generator: Adobe Illustrator 17.0.0, SVG Export Plug-In . SVG Version: 6.00 Build 0)  -->
<!DOCTYPE svg PUBLIC "-//W3C//DTD SVG 1.1//EN" "http://www.w3.org/Graphics/SVG/1.1/DTD/svg11.dtd">
<svg version="1.1" id="Layer_1" xmlns="http://www.w3.org/2000/svg" xmlns:xlink="http://www.w3.org/1999/xlink" x="0px" y="0px"
	 width="116.991px" height="116.991px" viewBox="0 0 116.991 116.991" enable-background="new 0 0 116.991 116.991"
	 xml:space="preserve">
<g>
	<path fill="#E5E6E6" d="M58.495,2.1c31.097,0,56.396,25.298,56.396,56.395c0,31.097-25.299,56.396-56.396,56.396
		C27.399,114.891,2.1,89.592,2.1,58.495C2.1,27.398,27.399,2.1,58.495,2.1 M58.495,0C26.189,0,0,26.189,0,58.495
		c0,32.306,26.189,58.495,58.495,58.495s58.495-26.19,58.495-58.495C116.991,26.189,90.801,0,58.495,0L58.495,0z"/>
</g>
<g>
	<path fill="#0DB288" d="M58.495,8.12c27.821,0,50.375,22.554,50.375,50.375c0,27.822-22.554,50.375-50.375,50.375
		c-27.821,0-50.375-22.554-50.375-50.375C8.12,30.674,30.674,8.12,58.495,8.12z"/>
</g>
<g>
	<path fill="#FFFFFF" d="M89.571,47.483H45.776V44.52h0.751c0.744,0,1.347-0.603,1.347-1.347c0-0.458-0.229-0.864-0.579-1.106
		l-9.233-10.153c-0.512-0.587-1.517-0.587-2.028,0l-9.428,10.374c-0.347,0.396-0.431,0.961-0.213,1.443
		c0.218,0.483,0.698,0.789,1.226,0.789h1.098v39.651c0,0.744,0.779,1.347,1.523,1.347c0.743,0,1.42-0.603,1.42-1.347v-2.692h11.025
		v2.692c0,0.744,0.772,1.347,1.515,1.347s1.529-0.603,1.529-1.347V50.497l7.987-0.032v12.969c-1.565,0.557-3.201,2.228-3.201,3.983
		c0,2.227,1.813,4.04,4.04,4.04c2.228,0,4.041-1.813,4.041-4.04c0-1.754-1.319-3.425-2.884-3.983V50.497h10.996v9.99
		c-1.565,0.557-2.725,2.482-2.725,4.235c0,2.228,1.813,4.04,4.04,4.04s4.04-1.812,4.04-4.04c0-1.753-1.794-3.678-3.359-4.235v-9.99
		h8.046v33.674c0,0.744,0.72,1.341,1.464,1.341c0.743,0,1.451-0.597,1.451-1.341V50.497h6.085v2.387
		c-0.808,0.337-1.347,0.951-1.347,1.738c0,0.787,0.539,1.4,1.347,1.737v3.933c-0.808,0.337-1.347,0.951-1.347,1.737
		c0,0.787,0.539,1.401,1.347,1.737v3.933c-0.808,0.337-1.347,0.951-1.347,1.737c0,0.786,0.539,1.4,1.347,1.737v3.933
		c-0.808,0.337-1.347,0.951-1.347,1.737s0.539,1.4,1.347,1.737v2.304c0,0.743,0.26,1.596,1.004,1.596s0.972-0.853,0.972-1.596V78.58
		c0.808-0.337,1.347-0.951,1.347-1.737s-0.539-1.4-1.347-1.737v-3.933c0.808-0.336,1.347-0.951,1.347-1.737
		c0-0.786-0.539-1.401-1.347-1.737v-3.933c0.808-0.336,1.347-0.95,1.347-1.737c0-0.787-0.539-1.4-1.347-1.737v-3.933
		c0.808-0.337,1.347-0.95,1.347-1.737c0-0.787-0.539-1.401-1.347-1.738v-2.387h1.347c0.743,0,1.647-0.282,1.647-1.026
		C90.718,48.727,90.314,47.483,89.571,47.483z M42.684,78.536H31.659v-5.038h11.025V78.536z M42.684,70.507H31.659v-5.039h11.025
		V70.507z M42.684,62.525H31.659v-4.987h11.025V62.525z M42.684,54.495H31.659V44.52h11.025V54.495z M54.554,68.762
		c-0.743,0-1.347-0.603-1.347-1.346c0-0.743,0.603-1.347,1.347-1.347c0.743,0,1.347,0.603,1.347,1.347
		C55.901,68.159,55.298,68.762,54.554,68.762z M68.022,66.069c-0.743,0-1.347-0.604-1.347-1.348c0-0.743,0.603-1.346,1.347-1.346
		c0.744,0,1.347,0.603,1.347,1.346C69.369,65.465,68.766,66.069,68.022,66.069z"/>
</g>
</svg>
