<?xml version="1.0" encoding="utf-8"?>
<!-- Generator: Adobe Illustrator 17.0.0, SVG Export Plug-In . SVG Version: 6.00 Build 0)  -->
<!DOCTYPE svg PUBLIC "-//W3C//DTD SVG 1.1//EN" "http://www.w3.org/Graphics/SVG/1.1/DTD/svg11.dtd">
<svg version="1.1" id="Layer_1" xmlns="http://www.w3.org/2000/svg" xmlns:xlink="http://www.w3.org/1999/xlink" x="0px" y="0px"
	 width="39.956px" height="19.989px" viewBox="0 0 39.956 19.989" enable-background="new 0 0 39.956 19.989" xml:space="preserve">
<g>
	<path fill="#0DB288" d="M19.84,13.885c-0.716-0.257-1.998-2.484-1.998-3.959c0-1.506,1.432-3.943,1.998-4.058
		c0.566,0.115,1.998,2.552,1.998,4.058C21.839,11.401,20.557,13.629,19.84,13.885 M9.889,19.989h20.178
		C31.06,13.434,34.116,8.17,39.956,4.65c-2.291-0.774-6.405,0.025-11.679,4.874c-1.524,1.401-0.228,4.619-2.466,4.598
		c-0.729-0.007-1.116-0.908-0.713-2.166C26.711,6.932,23.882,3.277,19.979,0c-3.905,3.277-6.733,6.932-5.122,11.957
		c0.404,1.258,0.017,2.159-0.713,2.166c-2.238,0.021-0.941-3.197-2.466-4.598C6.405,4.675,2.291,3.876,0,4.65
		C5.841,8.17,8.897,13.434,9.889,19.989z"/>
</g>
</svg>
