<?xml version="1.0" encoding="utf-8"?>
<!-- Generator: Adobe Illustrator 17.0.0, SVG Export Plug-In . SVG Version: 6.00 Build 0)  -->
<!DOCTYPE svg PUBLIC "-//W3C//DTD SVG 1.1//EN" "http://www.w3.org/Graphics/SVG/1.1/DTD/svg11.dtd">
<svg version="1.1" id="Layer_1" xmlns="http://www.w3.org/2000/svg" xmlns:xlink="http://www.w3.org/1999/xlink" x="0px" y="0px"
	 width="47px" height="53px" viewBox="0 0 47 53" enable-background="new 0 0 47 53" xml:space="preserve">
<g>
	<path fill="#FE6C01" d="M35.849,26.919c0.675,1.778,1.029,3.679,1.029,5.635c0,4.274-1.684,8.293-4.742,11.315
		c-3.058,3.022-7.124,4.687-11.448,4.687s-8.39-1.665-11.448-4.687c-3.058-3.022-4.742-7.041-4.742-11.315
		c0-4.274,1.684-8.293,4.742-11.315c3.058-3.022,7.124-4.687,11.448-4.687c2.614,0,5.132,0.609,7.392,1.757l2.435-3.752
		c-2.923-1.563-6.27-2.45-9.827-2.45C9.262,12.107,0,21.261,0,32.554C0,43.846,9.262,53,20.688,53s20.688-9.154,20.688-20.446
		c0-3.651-0.969-7.077-2.665-10.044L35.849,26.919z"/>
	<path fill="#FE6C01" d="M21.275,42.041L7.174,28.105l3.18-3.143l10.151,10.033L43.214,0L47,2.399L21.275,42.041z"/>
</g>
</svg>
