<?xml version="1.0" encoding="utf-8"?>
<!-- Generator: Adobe Illustrator 17.0.0, SVG Export Plug-In . SVG Version: 6.00 Build 0)  -->
<!DOCTYPE svg PUBLIC "-//W3C//DTD SVG 1.1//EN" "http://www.w3.org/Graphics/SVG/1.1/DTD/svg11.dtd">
<svg version="1.1" id="Layer_1" xmlns="http://www.w3.org/2000/svg" xmlns:xlink="http://www.w3.org/1999/xlink" x="0px" y="0px"
	 width="141px" height="105.999px" viewBox="0 0 141 105.999" enable-background="new 0 0 141 105.999" xml:space="preserve">
<g>
	<path fill="#FE6C01" d="M93.121,25.809c0,1.697,1.388,3.085,3.084,3.085h7.434c1.696,0,3.084-1.388,3.084-3.085v-7.438
		c0-1.697-1.388-3.085-3.084-3.085h-7.434c-1.696,0-3.084,1.388-3.084,3.085V25.809z M72.721,25.809
		c0,1.697,1.388,3.085,3.084,3.085h7.434c1.696,0,3.084-1.388,3.084-3.085v-7.438c0-1.697-1.388-3.085-3.084-3.085h-7.434
		c-1.696,0-3.084,1.388-3.084,3.085V25.809z M93.121,46.62c0,1.697,1.388,3.086,3.084,3.086h7.434c1.696,0,3.084-1.388,3.084-3.086
		v-7.437c0-1.697-1.388-3.086-3.084-3.086h-7.434c-1.696,0-3.084,1.389-3.084,3.086V46.62z M72.721,46.62
		c0,1.697,1.388,3.086,3.084,3.086h7.434c1.696,0,3.084-1.388,3.084-3.086v-7.437c0-1.697-1.388-3.086-3.084-3.086h-7.434
		c-1.696,0-3.084,1.389-3.084,3.086V46.62z M35.114,46.62c0,1.697,1.388,3.086,3.084,3.086h7.434c1.696,0,3.084-1.388,3.084-3.086
		v-7.437c0-1.697-1.388-3.086-3.084-3.086h-7.434c-1.696,0-3.084,1.389-3.084,3.086V46.62z M93.121,67.432
		c0,1.697,1.388,3.086,3.084,3.086h7.434c1.696,0,3.084-1.389,3.084-3.086v-7.437c0-1.697-1.388-3.085-3.084-3.085h-7.434
		c-1.696,0-3.084,1.388-3.084,3.085V67.432z M72.721,67.432c0,1.697,1.388,3.086,3.084,3.086h7.434c1.696,0,3.084-1.389,3.084-3.086
		v-7.437c0-1.697-1.388-3.085-3.084-3.085h-7.434c-1.696,0-3.084,1.388-3.084,3.085V67.432z M93.121,88.244
		c0,1.697,1.388,3.086,3.084,3.086h7.434c1.696,0,3.084-1.389,3.084-3.086v-7.437c0-1.697-1.388-3.086-3.084-3.086h-7.434
		c-1.696,0-3.084,1.389-3.084,3.086V88.244z M72.721,88.244c0,1.697,1.388,3.086,3.084,3.086h7.434c1.696,0,3.084-1.389,3.084-3.086
		v-7.437c0-1.697-1.388-3.086-3.084-3.086h-7.434c-1.696,0-3.084,1.389-3.084,3.086V88.244z M35.114,67.432
		c0,1.697,1.388,3.086,3.084,3.086h7.434c1.696,0,3.084-1.389,3.084-3.086v-7.437c0-1.697-1.388-3.085-3.084-3.085h-7.434
		c-1.696,0-3.084,1.388-3.084,3.085V67.432z M35.114,88.244c0,1.697,1.388,3.086,3.084,3.086h7.434c1.696,0,3.084-1.389,3.084-3.086
		v-7.437c0-1.697-1.388-3.086-3.084-3.086h-7.434c-1.696,0-3.084,1.389-3.084,3.086V88.244z M124.254,100.564
		c-1.696,0-3.084-1.389-3.084-3.086V3.084c0-1.697-1.388-3.084-3.084-3.084H61.357c-1.696,0-3.084,1.387-3.084,3.084V16.66
		c0,1.697-1.388,3.086-3.084,3.086H22.914c-1.696,0-3.084,1.388-3.084,3.085v74.648c0,1.697-1.388,3.086-3.084,3.086H3.084
		c-1.696,0-3.084,1.222-3.084,2.718c0,1.494,1.388,2.717,3.084,2.717h134.832c1.696,0,3.084-1.223,3.084-2.717
		c0-1.495-1.388-2.718-3.084-2.718H124.254z M25.263,28.266c0-1.697,1.388-3.084,3.084-3.084H55.19c1.696,0,3.084,1.387,3.084,3.084
		v69.213c0,1.697-1.388,3.086-3.084,3.086H28.347c-1.696,0-3.084-1.389-3.084-3.086V28.266z M63.707,8.52
		c0-1.697,1.388-3.085,3.084-3.085h45.862c1.696,0,3.084,1.388,3.084,3.085v88.958c0,1.697-1.388,3.086-3.084,3.086H66.791
		c-1.696,0-3.084-1.389-3.084-3.086V8.52z"/>
</g>
</svg>
