<?xml version="1.0" encoding="utf-8"?>
<!-- Generator: Adobe Illustrator 17.0.0, SVG Export Plug-In . SVG Version: 6.00 Build 0)  -->
<!DOCTYPE svg PUBLIC "-//W3C//DTD SVG 1.1//EN" "http://www.w3.org/Graphics/SVG/1.1/DTD/svg11.dtd">
<svg version="1.1" id="Layer_1" xmlns="http://www.w3.org/2000/svg" xmlns:xlink="http://www.w3.org/1999/xlink" x="0px" y="0px"
	 width="44.149px" height="44.149px" viewBox="0 0 44.149 44.149" enable-background="new 0 0 44.149 44.149" xml:space="preserve">
<g>
	<linearGradient id="SVGID_1_" gradientUnits="userSpaceOnUse" x1="7.885" y1="5.1641" x2="36.2641" y2="38.985">
		<stop  offset="0" style="stop-color:#F8D676"/>
		<stop  offset="0.1872" style="stop-color:#F1A454"/>
		<stop  offset="0.335" style="stop-color:#EE5C3C"/>
		<stop  offset="0.6995" style="stop-color:#C22F86"/>
		<stop  offset="0.9568" style="stop-color:#6666AA"/>
		<stop  offset="0.9852" style="stop-color:#5B6CAD"/>
	</linearGradient>
	<circle fill="url(#SVGID_1_)" cx="22.075" cy="22.075" r="22.075"/>
	<g>
		<path fill="#FFFFFF" d="M26.066,11.93h-7.983c-3.324,0-6.037,2.699-6.037,6.023v8.522c0,3.324,2.713,6.037,6.037,6.037h7.983
			c3.324,0,6.037-2.713,6.037-6.037v-8.522C32.103,14.629,29.39,11.93,26.066,11.93z M29.915,26.475
			c0,2.116-1.719,3.849-3.849,3.849h-7.983c-2.116,0-3.849-1.733-3.849-3.849v-8.522c0-2.116,1.733-3.849,3.849-3.849h7.983
			c2.116,0,3.849,1.733,3.849,3.849V26.475z"/>
		<path fill="#FFFFFF" d="M22.075,27.905c-3.153,0-5.719-2.567-5.719-5.719c0-3.155,2.51-5.719,5.595-5.719l0.162,0.001
			c3.47,0.101,5.753,2.41,5.68,5.747C27.723,25.406,25.211,27.905,22.075,27.905z M22.034,19.132c-1.7,0-3.014,1.371-3.014,3.054
			c0,1.686,1.371,3.055,3.055,3.055c1.675,0,3.017-1.355,3.055-3.085c0.041-1.865-1.087-2.967-3.094-3.025L22.034,19.132z"/>
		<circle fill="#FFFFFF" cx="27.478" cy="16.761" r="1.23"/>
	</g>
</g>
</svg>
