<?xml version="1.0" encoding="utf-8"?>
<!-- Generator: Adobe Illustrator 17.0.0, SVG Export Plug-In . SVG Version: 6.00 Build 0)  -->
<!DOCTYPE svg PUBLIC "-//W3C//DTD SVG 1.1//EN" "http://www.w3.org/Graphics/SVG/1.1/DTD/svg11.dtd">
<svg version="1.1" id="Layer_1" xmlns="http://www.w3.org/2000/svg" xmlns:xlink="http://www.w3.org/1999/xlink" x="0px" y="0px"
	 width="108.971px" height="109.016px" viewBox="0 0 108.971 109.016" enable-background="new 0 0 108.971 109.016"
	 xml:space="preserve">
<g>
	<path fill="#D6D6D6" d="M3.016,57.565h9.083v48.425c0,1.695,1.332,3.027,3.028,3.027h78.718c1.696,0,3.028-1.332,3.028-3.027
		V57.565h9.083c2.664,0,3.996-3.268,2.18-5.205L56.665,0.908c-1.211-1.21-3.149-1.21-4.239,0L0.836,52.36
		C-0.98,54.297,0.352,57.565,3.016,57.565z M54.485,7.324l44.203,44.188h-4.844c-1.695,0-3.028,1.332-3.028,3.027v48.425H18.154
		V54.538c0-1.695-1.332-3.027-3.028-3.027h-4.844L54.485,7.324z"/>
	<path fill="#D6D6D6" d="M37.168,83.957c0.605,0.605,1.332,0.848,2.18,0.848c0.848,0,1.574-0.243,2.18-0.848l30.276-30.265
		c1.211-1.211,1.211-3.148,0-4.238c-1.211-1.21-3.149-1.21-4.238,0L37.289,79.719C36.078,80.809,36.078,82.746,37.168,83.957z"/>
	<path fill="#D6D6D6" d="M57.513,78.751c0,4.964,4.118,9.08,9.083,9.08c4.965,0,9.083-4.116,9.083-9.08
		c0-4.963-4.118-9.079-9.083-9.079C61.631,69.671,57.513,73.787,57.513,78.751z M69.624,78.751c0,1.695-1.332,3.026-3.028,3.026
		c-1.695,0-3.028-1.332-3.028-3.026c0-1.695,1.332-3.026,3.028-3.026C68.291,75.724,69.624,77.056,69.624,78.751z"/>
	<path fill="#D6D6D6" d="M42.375,63.618c4.965,0,9.083-4.115,9.083-9.079c0-4.964-4.118-9.08-9.083-9.08
		c-4.965,0-9.083,4.116-9.083,9.08C33.292,59.502,37.41,63.618,42.375,63.618z M42.375,51.512c1.695,0,3.028,1.332,3.028,3.027
		c0,1.695-1.332,3.026-3.028,3.026c-1.696,0-3.028-1.332-3.028-3.026C39.347,52.844,40.68,51.512,42.375,51.512z"/>
</g>
</svg>
