<?xml version="1.0" encoding="utf-8"?>
<!-- Generator: Adobe Illustrator 17.0.0, SVG Export Plug-In . SVG Version: 6.00 Build 0)  -->
<!DOCTYPE svg PUBLIC "-//W3C//DTD SVG 1.1//EN" "http://www.w3.org/Graphics/SVG/1.1/DTD/svg11.dtd">
<svg version="1.1" id="Layer_1" xmlns="http://www.w3.org/2000/svg" xmlns:xlink="http://www.w3.org/1999/xlink" x="0px" y="0px"
	 width="111.998px" height="115.998px" viewBox="0 0 111.998 115.998" enable-background="new 0 0 111.998 115.998"
	 xml:space="preserve">
<path fill="#FFFFFF" d="M111.767,108.29l-33.45-33.526c7.042-7.935,11.32-18.388,11.32-29.843C89.637,20.111,69.571,0,44.819,0
	S0,20.111,0,44.92c0,24.809,20.066,44.921,44.819,44.921c9.518,0,18.343-2.974,25.601-8.044l33.891,33.967
	c0.307,0.308,0.804,0.309,1.093,0.02l6.384-6.399C112.084,109.088,112.059,108.583,111.767,108.29z M44.819,84.556
	c-21.841,0-39.546-17.746-39.546-39.636c0-21.89,17.705-39.636,39.546-39.636c21.84,0,39.546,17.746,39.546,39.636
	C84.365,66.811,66.659,84.556,44.819,84.556z"/>
</svg>
