<?xml version="1.0" encoding="utf-8"?>
<!-- Generator: Adobe Illustrator 17.0.0, SVG Export Plug-In . SVG Version: 6.00 Build 0)  -->
<!DOCTYPE svg PUBLIC "-//W3C//DTD SVG 1.1//EN" "http://www.w3.org/Graphics/SVG/1.1/DTD/svg11.dtd">
<svg version="1.1" id="Layer_1" xmlns="http://www.w3.org/2000/svg" xmlns:xlink="http://www.w3.org/1999/xlink" x="0px" y="0px"
	 width="152.996px" height="97.028px" viewBox="0 0 152.996 97.028" enable-background="new 0 0 152.996 97.028"
	 xml:space="preserve">
<g>
	<path fill-rule="evenodd" clip-rule="evenodd" fill="#00573B" d="M18.504,76.045h4.748V58.348h-4.329l-7.297,10.538L4.329,58.348H0
		v17.697h4.748V65.77l5.586,8.067h2.583l5.586-8.067V76.045z"/>
	<path fill-rule="evenodd" clip-rule="evenodd" fill="#00573B" d="M61.273,58.348h-2.778h-1.97h-2.778l-6.69,17.675h4.748
		l5.174-13.671h1.06l5.175,13.671h4.748L61.273,58.348z"/>
	<path fill-rule="evenodd" clip-rule="evenodd" fill="#00573B" d="M32.318,69.046l2.534-6.694h1.06l2.534,6.694H32.318z
		 M39.145,58.348h-2.778h-1.97h-2.778l-6.69,17.675h4.748l1.285-3.396h8.838l1.285,3.396h4.748L39.145,58.348z"/>
	<path fill-rule="evenodd" clip-rule="evenodd" fill="#00573B" d="M76.574,69.046l2.534-6.694h1.061l2.534,6.694H76.574z
		 M83.401,58.348h-2.777h-1.97h-2.778l-6.689,17.675h4.748l1.285-3.396h8.838l1.285,3.396h4.748L83.401,58.348z"/>
	<path fill-rule="evenodd" clip-rule="evenodd" fill="#00573B" d="M146.488,61.908v14.116h-4.721V61.908h-6.508v-3.559h17.737v3.559
		H146.488z"/>
	<path fill-rule="evenodd" clip-rule="evenodd" fill="#00573B" d="M129.141,58.348h4.405v17.675h-4.721V64.544l-10.205,11.135v0.001
		l-0.316,0.344h-4.405V58.349h4.721v11.479l10.205-11.135v-0.001L129.141,58.348z"/>
	<path fill-rule="evenodd" clip-rule="evenodd" fill="#00573B" d="M90.82,75.99h5.51l4.779-6.477h0.858l4.779,6.477h5.51
		l-6.766-9.169l6.209-8.471h-5.51l-4.196,5.724h-0.911l-4.196-5.724h-5.51l6.21,8.471L90.82,75.99z"/>
	<path fill-rule="evenodd" clip-rule="evenodd" fill="#00573B" d="M76.448,16.31c-0.26-0.093-0.724-0.904-0.724-1.441
		c0-0.548,0.519-1.435,0.724-1.477c0.205,0.042,0.724,0.929,0.724,1.477C77.172,15.407,76.707,16.217,76.448,16.31 M72.84,18.533
		h7.315c0.36-2.386,1.467-4.302,3.585-5.584c-0.83-0.282-2.322,0.009-4.233,1.774c-0.552,0.51-0.083,1.682-0.894,1.675
		c-0.264-0.003-0.405-0.331-0.258-0.788c0.584-1.829-0.441-3.16-1.856-4.353c-1.415,1.193-2.441,2.524-1.856,4.353
		c0.146,0.458,0.006,0.786-0.258,0.788c-0.811,0.007-0.341-1.164-0.894-1.675c-1.912-1.765-3.403-2.056-4.233-1.774
		C71.373,14.23,72.481,16.146,72.84,18.533z"/>
	<path fill-rule="evenodd" clip-rule="evenodd" fill="#00573B" d="M76.499,2.598c0.591,0,1.069-0.476,1.069-1.064
		c0-0.587-0.479-1.065-1.069-1.065c-0.59,0-1.069,0.477-1.069,1.065C75.43,2.122,75.909,2.598,76.499,2.598 M76.499,47.231
		c0.591,0,1.069,0.476,1.069,1.063c0,0.588-0.479,1.064-1.069,1.064c-0.59,0-1.069-0.476-1.069-1.064
		C75.43,47.707,75.909,47.231,76.499,47.231z M54.068,24.916c0,0.588-0.479,1.064-1.069,1.064s-1.069-0.476-1.069-1.064
		c0-0.587,0.479-1.064,1.069-1.064S54.068,24.328,54.068,24.916z M98.927,24.916c0,0.588,0.479,1.064,1.069,1.064
		c0.59,0,1.069-0.476,1.069-1.064c0-0.587-0.479-1.064-1.069-1.064C99.406,23.852,98.927,24.328,98.927,24.916z M60.009,35.97
		c-2.389-4.418-0.716-8.874-3.922-11.056c3.224-2.193,1.515-6.687,3.962-11.128c0.707-1.034,1.507-1.996,2.39-2.874
		c0.878-0.872,1.837-1.663,2.869-2.36c4.465-2.439,8.984-0.737,11.189-3.946c2.208,3.213,6.732,1.505,11.201,3.951
		c1.022,0.693,1.975,1.477,2.846,2.343c0.884,0.877,1.686,1.838,2.392,2.87c2.461,4.446,0.743,8.948,3.971,11.145
		c-3.211,2.185-1.529,6.651-3.932,11.073c-0.716,1.054-1.531,2.034-2.432,2.927c-0.903,0.896-1.892,1.706-2.955,2.415
		c-4.433,2.362-8.902,0.707-11.092,3.892c-2.188-3.183-6.65-1.534-11.08-3.885c-1.073-0.716-2.07-1.532-2.978-2.435
		C61.539,38.008,60.725,37.026,60.009,35.97z M88.18,13.29c-2.99-2.975-7.12-4.815-11.683-4.815c-4.562,0-8.693,1.84-11.682,4.815
		c-2.99,2.976-4.839,7.084-4.839,11.624c0,4.539,1.849,8.649,4.839,11.623c2.99,2.975,7.12,4.815,11.682,4.815
		c4.562,0,8.693-1.84,11.683-4.815c2.99-2.975,4.839-7.084,4.839-11.623C93.019,20.374,91.17,16.266,88.18,13.29z M76.497,7.713
		c4.774,0,9.096,1.925,12.225,5.038c3.128,3.113,5.064,7.413,5.064,12.163c0,4.749-1.935,9.05-5.064,12.162
		c-3.129,3.113-7.451,5.038-12.225,5.038c-4.774,0-9.096-1.925-12.224-5.038c-3.129-3.113-5.064-7.413-5.064-12.162
		c0-4.75,1.935-9.05,5.064-12.163C67.401,9.639,71.724,7.713,76.497,7.713z M74.184,3.234c-1.284,2.495-5.063,1.749-8.925,4.436
		c-1.213,0.783-2.338,1.689-3.358,2.703c-1.021,1.014-1.935,2.135-2.725,3.343l-0.007,0.01c-2.705,3.844-1.954,7.607-4.462,8.885
		c-0.319,0.162-0.953,0.382-1.319,0.382c-1.067,0-1.931,0.86-1.931,1.922c0,1.062,0.865,1.922,1.931,1.922
		c0.391,0,1.049,0.232,1.395,0.419c2.417,1.317,1.709,5.041,4.386,8.846c0.051,0.073,0.102,0.146,0.154,0.22
		c0.755,1.122,1.619,2.168,2.577,3.119c0.933,0.927,1.954,1.765,3.051,2.501c0.101,0.073,0.201,0.143,0.301,0.213
		c3.865,2.691,7.646,1.944,8.931,4.44c0.163,0.317,0.384,0.947,0.384,1.312c0,1.062,0.865,1.922,1.932,1.922
		c1.067,0,1.931-0.861,1.931-1.922c0-0.388,0.233-1.044,0.422-1.389c1.322-2.404,5.066-1.7,8.89-4.363
		c0.097-0.068,0.196-0.136,0.294-0.208c1.095-0.734,2.115-1.569,3.047-2.494c0.968-0.96,1.84-2.016,2.602-3.152
		c0.048-0.067,0.094-0.134,0.14-0.199c2.677-3.805,1.97-7.529,4.386-8.846c0.346-0.188,1.005-0.419,1.396-0.419
		c1.066,0,1.931-0.86,1.931-1.922c0-1.062-0.865-1.922-1.931-1.922c-0.367,0-1-0.22-1.319-0.382
		c-2.093-1.066-1.917-3.863-3.373-6.994l0.005-0.003l-0.07-0.136c-0.275-0.573-0.606-1.156-1.017-1.742
		c-0.796-1.222-1.718-2.353-2.749-3.376c-1.017-1.009-2.141-1.913-3.353-2.694c-0.588-0.408-1.173-0.737-1.748-1.01
		c-0.063-0.033-0.126-0.065-0.189-0.096L85.79,6.566c-3.087-1.405-5.843-1.265-6.938-3.256c-0.189-0.344-0.422-1-0.422-1.389
		C78.431,0.86,77.566,0,76.499,0c-1.067,0-1.932,0.86-1.932,1.921C74.568,2.286,74.347,2.917,74.184,3.234z"/>
	<path fill-rule="evenodd" clip-rule="evenodd" fill="#00573B" d="M82.487,34.336h4.134v-15.41h-3.769l-6.354,9.176l-6.354-9.176
		h-3.769v15.41h4.134v-8.948l4.864,7.024h2.25l4.864-7.024V34.336z"/>
	<path fill="#00573B" d="M27.26,96.91h2.145l-2.104-4.693l2.01-3.838h-2.139l-1.342,3.428h-0.68v-3.428h-1.723v3.428h-0.703
		l-1.389-3.428h-2.145l2.057,3.855l-2.15,4.676h2.145l1.342-3.463h0.844v3.463h1.723v-3.463h0.815L27.26,96.91z"/>
	<path fill="#00573B" d="M33.773,94.033v-5.654h-1.729v8.531h1.729l2.514-5.648v5.648h1.723v-8.531h-1.723L33.773,94.033z"/>
	<path fill="#00573B" d="M42.408,88.379l-0.123,3.838c-0.02,0.613-0.043,1.123-0.07,1.529c-0.027,0.406-0.076,0.733-0.147,0.981
		c-0.07,0.248-0.17,0.429-0.299,0.542c-0.129,0.113-0.307,0.184-0.533,0.211h-0.199v1.43h0.41c0.414,0,0.775-0.082,1.084-0.246
		s0.567-0.432,0.776-0.803c0.209-0.371,0.37-0.854,0.483-1.45c0.113-0.596,0.186-1.327,0.217-2.194l0.082-2.402h1.564v7.096h1.729
		v-8.531H42.408z"/>
	<path fill="#00573B" d="M56.697,91.994c0-0.613-0.074-1.153-0.223-1.62c-0.148-0.467-0.359-0.856-0.63-1.169
		c-0.272-0.312-0.596-0.548-0.973-0.706c-0.377-0.158-0.794-0.237-1.251-0.237c-0.457,0-0.875,0.079-1.254,0.237
		c-0.379,0.158-0.703,0.394-0.973,0.706c-0.27,0.313-0.479,0.702-0.627,1.169c-0.149,0.467-0.223,1.007-0.223,1.62v1.418
		c0,0.598,0.075,1.123,0.226,1.576c0.15,0.453,0.361,0.83,0.633,1.131c0.271,0.301,0.597,0.527,0.976,0.68
		c0.379,0.152,0.797,0.229,1.254,0.229c0.457,0,0.874-0.076,1.251-0.229c0.377-0.152,0.699-0.379,0.967-0.68
		s0.476-0.678,0.624-1.131c0.148-0.453,0.223-0.979,0.223-1.576V91.994z M54.969,93.412c0,0.387-0.028,0.718-0.085,0.993
		c-0.057,0.275-0.142,0.501-0.255,0.677c-0.113,0.176-0.253,0.305-0.419,0.387c-0.166,0.082-0.358,0.123-0.577,0.123
		c-0.223,0-0.419-0.041-0.589-0.123c-0.17-0.082-0.313-0.211-0.428-0.387c-0.115-0.176-0.202-0.401-0.261-0.677
		c-0.059-0.275-0.088-0.606-0.088-0.993v-1.43c0-0.406,0.029-0.753,0.088-1.04c0.059-0.287,0.145-0.522,0.258-0.706
		c0.113-0.184,0.254-0.318,0.422-0.404c0.168-0.086,0.363-0.129,0.586-0.129c0.219,0,0.412,0.043,0.58,0.129
		c0.168,0.086,0.309,0.221,0.422,0.404c0.113,0.184,0.199,0.419,0.258,0.706c0.059,0.287,0.088,0.634,0.088,1.04V93.412z"/>
	<path fill="#00573B" d="M61.518,94.033v-5.654h-1.729v8.531h1.729l2.514-5.648v5.648h1.723v-8.531h-1.723L61.518,94.033z
		 M63.598,86.129c0,0.102-0.015,0.198-0.044,0.29c-0.029,0.092-0.076,0.173-0.141,0.243c-0.064,0.07-0.148,0.127-0.252,0.17
		c-0.104,0.043-0.229,0.064-0.378,0.064c-0.152,0-0.28-0.021-0.384-0.064c-0.104-0.043-0.188-0.1-0.255-0.17
		c-0.067-0.07-0.114-0.151-0.144-0.243c-0.029-0.092-0.044-0.188-0.044-0.29h-1.213c0,0.258,0.048,0.493,0.144,0.706
		c0.096,0.213,0.231,0.396,0.407,0.548c0.176,0.152,0.39,0.271,0.642,0.357c0.252,0.086,0.534,0.129,0.847,0.129
		s0.594-0.043,0.844-0.129c0.25-0.086,0.463-0.205,0.639-0.357c0.176-0.152,0.311-0.335,0.407-0.548
		c0.096-0.213,0.144-0.448,0.144-0.706H63.598z"/>
	<path fill="#00573B" d="M77.809,96.91h2.051l-2.32-4.559l2.086-3.973h-2.098l-1.482,3.41h-0.58v-3.41h-1.723v8.531h1.723v-3.48
		h0.75L77.809,96.91z"/>
	<path fill="#00573B" d="M85.243,96.91c0.863,0,1.522-0.211,1.978-0.633c0.455-0.422,0.683-1.047,0.683-1.875
		c0-0.207-0.021-0.409-0.064-0.607c-0.043-0.197-0.111-0.38-0.205-0.548c-0.094-0.168-0.217-0.315-0.369-0.442
		c-0.152-0.127-0.338-0.222-0.557-0.284c0.188-0.082,0.349-0.187,0.483-0.313c0.135-0.127,0.246-0.269,0.334-0.425
		c0.088-0.156,0.152-0.324,0.193-0.504c0.041-0.18,0.062-0.367,0.062-0.563c0-0.398-0.062-0.744-0.185-1.037
		c-0.123-0.293-0.302-0.536-0.536-0.729c-0.234-0.193-0.521-0.337-0.858-0.431c-0.338-0.094-0.72-0.141-1.146-0.141h-2.637v8.531
		H85.243z M85.301,93.201c0.32,0,0.548,0.105,0.683,0.316c0.135,0.211,0.202,0.498,0.202,0.861c0,0.16-0.018,0.307-0.053,0.44
		c-0.035,0.133-0.091,0.249-0.167,0.349c-0.076,0.1-0.174,0.177-0.293,0.231c-0.119,0.055-0.263,0.082-0.431,0.082h-1.102v-2.279
		H85.301z M84.141,89.815h0.914c0.351,0,0.605,0.084,0.762,0.252c0.156,0.168,0.234,0.445,0.234,0.832
		c0,0.344-0.083,0.604-0.249,0.782c-0.166,0.178-0.421,0.267-0.765,0.267h-0.896V89.815z"/>
	<path fill="#00573B" d="M95.6,96.91h1.84l-2.684-8.531H93.18l-2.666,8.531h1.822l0.457-1.746h2.35L95.6,96.91z M93.965,90.688
		l0.797,3.041h-1.594L93.965,90.688z"/>
	<path fill="#00573B" d="M103.063,93.91c0.43,0,0.816-0.063,1.16-0.19c0.344-0.127,0.635-0.308,0.873-0.542
		c0.238-0.234,0.421-0.519,0.548-0.853c0.127-0.334,0.19-0.708,0.19-1.122c0-0.406-0.063-0.782-0.19-1.128
		c-0.127-0.346-0.31-0.645-0.548-0.896c-0.238-0.252-0.528-0.448-0.87-0.589c-0.342-0.141-0.729-0.211-1.163-0.211h-2.906v8.531
		h1.723v-3H103.063z M101.879,89.815h1.184c0.18,0,0.335,0.039,0.466,0.117c0.131,0.078,0.238,0.182,0.322,0.311
		s0.146,0.277,0.185,0.445c0.039,0.168,0.059,0.344,0.059,0.527c0,0.184-0.02,0.353-0.059,0.507
		c-0.039,0.154-0.101,0.287-0.185,0.398c-0.084,0.111-0.191,0.198-0.322,0.261c-0.131,0.063-0.286,0.094-0.466,0.094h-1.184V89.815z
		"/>
	<path fill="#00573B" d="M114.428,88.379h-5.912v1.436h2.074v7.096h1.729v-7.096h2.109V88.379z"/>
	<path fill="#00573B" d="M121.165,96.91h1.84l-2.684-8.531h-1.576l-2.666,8.531h1.822l0.457-1.746h2.35L121.165,96.91z
		 M119.53,90.688l0.797,3.041h-1.594L119.53,90.688z"/>
	<path fill="#00573B" d="M126.829,88.379l-0.123,3.838c-0.02,0.613-0.043,1.123-0.07,1.529c-0.027,0.406-0.076,0.733-0.146,0.981
		c-0.07,0.248-0.17,0.429-0.299,0.542c-0.129,0.113-0.307,0.184-0.533,0.211h-0.199v1.43h0.41c0.414,0,0.775-0.082,1.084-0.246
		s0.567-0.432,0.776-0.803c0.209-0.371,0.37-0.854,0.483-1.45c0.113-0.596,0.186-1.327,0.217-2.194l0.082-2.402h1.564v7.096h1.729
		v-8.531H126.829z"/>
</g>
</svg>
