<?xml version="1.0" encoding="utf-8"?>
<!-- Generator: Adobe Illustrator 17.0.0, SVG Export Plug-In . SVG Version: 6.00 Build 0)  -->
<!DOCTYPE svg PUBLIC "-//W3C//DTD SVG 1.1//EN" "http://www.w3.org/Graphics/SVG/1.1/DTD/svg11.dtd">
<svg version="1.1" id="Layer_1" xmlns="http://www.w3.org/2000/svg" xmlns:xlink="http://www.w3.org/1999/xlink" x="0px" y="0px"
	 width="38px" height="37.999px" viewBox="0 0 38 37.999" enable-background="new 0 0 38 37.999" xml:space="preserve">
<g>
	<path fill-rule="evenodd" clip-rule="evenodd" fill="#00573B" d="M18.962,12.439c-0.197-0.071-0.549-0.69-0.549-1.099
		c0-0.418,0.394-1.094,0.549-1.126c0.156,0.031,0.55,0.708,0.55,1.126C19.512,11.749,19.16,12.367,18.962,12.439 M16.225,14.133
		h5.55c0.273-1.82,1.114-3.281,2.72-4.258c-0.63-0.215-1.762,0.007-3.212,1.353c-0.419,0.389-0.063,1.283-0.678,1.277
		c-0.201-0.001-0.307-0.252-0.196-0.601c0.443-1.396-0.335-2.41-1.409-3.319c-1.074,0.91-1.852,1.924-1.409,3.319
		c0.111,0.349,0.004,0.599-0.196,0.601c-0.616,0.006-0.259-0.888-0.678-1.277c-1.451-1.346-2.582-1.568-3.212-1.353
		C15.112,10.852,15.953,12.313,16.225,14.133z"/>
	<path fill-rule="evenodd" clip-rule="evenodd" fill="#00573B" d="M19.002,1.982c0.448,0,0.811-0.363,0.811-0.811
		c0-0.448-0.363-0.812-0.811-0.812c-0.448,0-0.811,0.364-0.811,0.812C18.19,1.618,18.554,1.982,19.002,1.982 M19.002,36.018
		c0.448,0,0.811,0.363,0.811,0.812c0,0.447-0.363,0.811-0.811,0.811c-0.448,0-0.811-0.363-0.811-0.811
		C18.19,36.381,18.554,36.018,19.002,36.018z M1.981,19.001c0,0.448-0.363,0.812-0.811,0.812c-0.448,0-0.811-0.363-0.811-0.812
		c0-0.447,0.363-0.811,0.811-0.811C1.618,18.19,1.981,18.553,1.981,19.001z M36.019,19.001c0,0.448,0.363,0.812,0.811,0.812
		c0.448,0,0.811-0.363,0.811-0.812c0-0.447-0.363-0.811-0.811-0.811C36.382,18.19,36.019,18.553,36.019,19.001z M6.489,27.43
		c-1.813-3.369-0.543-6.767-2.976-8.431C5.96,17.327,4.663,13.9,6.52,10.513c0.536-0.788,1.143-1.522,1.814-2.191
		c0.666-0.665,1.394-1.268,2.177-1.8c3.388-1.86,6.817-0.562,8.49-3.009c1.675,2.45,5.108,1.148,8.499,3.013
		c0.775,0.529,1.498,1.127,2.16,1.786c0.671,0.669,1.279,1.402,1.815,2.189c1.867,3.391,0.564,6.824,3.013,8.499
		c-2.436,1.666-1.16,5.071-2.983,8.444c-0.543,0.804-1.162,1.552-1.845,2.233c-0.685,0.683-1.436,1.3-2.242,1.841
		c-3.364,1.802-6.755,0.539-8.416,2.968c-1.66-2.427-5.046-1.169-8.407-2.963c-0.814-0.546-1.571-1.168-2.26-1.857
		C7.65,28.985,7.033,28.236,6.489,27.43z M27.865,10.136C25.596,7.866,22.462,6.463,19,6.463s-6.596,1.403-8.864,3.673
		c-2.269,2.268-3.672,5.402-3.672,8.863s1.403,6.596,3.672,8.864c2.268,2.268,5.403,3.672,8.864,3.672s6.596-1.403,8.865-3.672
		c2.268-2.268,3.672-5.403,3.672-8.864S30.133,12.404,27.865,10.136z M19,5.882c3.622,0,6.902,1.468,9.276,3.842
		c2.374,2.374,3.842,5.653,3.842,9.275s-1.468,6.902-3.842,9.275c-2.374,2.374-5.653,3.842-9.276,3.842
		c-3.622,0-6.902-1.468-9.275-3.842c-2.374-2.374-3.842-5.653-3.842-9.275s1.468-6.901,3.842-9.275
		C12.099,7.35,15.378,5.882,19,5.882z M17.245,2.466C16.27,4.368,13.403,3.8,10.472,5.849C9.552,6.446,8.698,7.138,7.925,7.911
		C7.15,8.684,6.456,9.538,5.857,10.46l-0.005,0.008C3.8,13.399,4.37,16.269,2.467,17.244c-0.242,0.123-0.723,0.291-1.001,0.291
		C0.656,17.535,0,18.191,0,19.001s0.656,1.465,1.465,1.465c0.297,0,0.796,0.176,1.059,0.32c1.834,1.003,1.297,3.843,3.328,6.746
		c0.039,0.055,0.077,0.111,0.117,0.167c0.573,0.856,1.228,1.654,1.955,2.379c0.708,0.707,1.483,1.347,2.315,1.908
		c0.076,0.055,0.153,0.109,0.228,0.162c2.932,2.051,5.802,1.483,6.777,3.385c0.124,0.242,0.292,0.723,0.292,1.001
		c0,0.809,0.656,1.465,1.465,1.465c0.809,0,1.465-0.656,1.465-1.465c0-0.296,0.177-0.796,0.32-1.059
		c1.003-1.834,3.844-1.297,6.746-3.328c0.074-0.053,0.149-0.104,0.223-0.158c0.831-0.56,1.605-1.197,2.312-1.902
		c0.734-0.732,1.396-1.538,1.974-2.404c0.036-0.05,0.071-0.101,0.106-0.151c2.031-2.902,1.494-5.742,3.328-6.746
		c0.263-0.144,0.763-0.32,1.059-0.32c0.809,0,1.465-0.656,1.465-1.465s-0.656-1.465-1.465-1.465c-0.278,0-0.759-0.168-1.001-0.291
		c-1.588-0.814-1.455-2.947-2.56-5.335l0.004-0.002l-0.053-0.104c-0.209-0.437-0.46-0.882-0.771-1.329
		c-0.604-0.931-1.304-1.794-2.086-2.574c-0.772-0.77-1.624-1.459-2.544-2.055c-0.446-0.311-0.89-0.562-1.327-0.769
		c-0.048-0.025-0.096-0.05-0.143-0.074l-0.002,0.005c-2.343-1.073-4.433-0.965-5.264-2.483c-0.143-0.263-0.32-0.763-0.32-1.059
		C20.467,0.656,19.811,0,19.002,0c-0.809,0-1.465,0.656-1.465,1.465C17.536,1.743,17.368,2.224,17.245,2.466z"/>
	<path fill-rule="evenodd" clip-rule="evenodd" fill="#00573B" d="M23.545,26.184h3.137V14.433h-2.86L19,21.43l-4.821-6.998h-2.86
		v11.752h3.137v-6.824l3.691,5.357h1.707l3.691-5.357V26.184z"/>
</g>
</svg>
