<?xml version="1.0" encoding="utf-8"?>
<!-- Generator: Adobe Illustrator 17.0.0, SVG Export Plug-In . SVG Version: 6.00 Build 0)  -->
<!DOCTYPE svg PUBLIC "-//W3C//DTD SVG 1.1//EN" "http://www.w3.org/Graphics/SVG/1.1/DTD/svg11.dtd">
<svg version="1.1" id="Layer_1" xmlns="http://www.w3.org/2000/svg" xmlns:xlink="http://www.w3.org/1999/xlink" x="0px" y="0px"
	 width="40px" height="48.999px" viewBox="0 0 40 48.999" enable-background="new 0 0 40 48.999" xml:space="preserve">
<g>
	<path fill="#FFFFFF" d="M16.82,3.041c1.467,0,1.523,0.461,2.325,1.447c2.459,3.03,1.823,10.024,1.371,12.462l-0.579,3.123
		l3.022-0.758c1.567-0.393,4.418-0.61,6.212-0.61c2.072,0,7.83-0.657,7.83,3.752v23.5H3V3.041H16.82 M16.82,0H0v48.999h40V22.458
		c0-5.055-5.507-6.794-10.83-6.794c-2.028,0-4.029,0.252-5.69,0.669C23.48,16.333,26.54,0,16.82,0L16.82,0z"/>
	<path fill="#FFFFFF" d="M26.384,11.794c4.094-0.977,9.61,0.57,12.18,2.407C35.576,10.124,28.104,2.547,23.7,0.151
		C26.014,2.536,26.826,8.797,26.384,11.794z"/>
	<path fill="#FFFFFF" d="M25.124,28.134v1.429h2.98v1.49h-2.98v3.022h-1.82v-7.534h5.26v1.593H25.124z"/>
	<path fill="#FFFFFF" d="M21.164,27.481c-0.6-0.614-1.42-0.94-2.4-0.94h-3.2v7.534h3.2c1.08,0,1.92-0.388,2.52-1.103
		C22.404,31.625,22.464,28.828,21.164,27.481z M20.164,31.401c-0.26,0.715-0.76,1.062-1.52,1.062h-1.26v-4.329h0.98
		c0.96,0,1.62,0.367,1.84,1.326C20.324,29.992,20.364,30.849,20.164,31.401z"/>
	<path fill="#FFFFFF" d="M14.344,28.093c-0.32-0.98-1.2-1.552-2.44-1.552h-3.34v7.534h1.82v-2.614h1.52
		c1.24,0,2.12-0.572,2.44-1.551C14.544,29.298,14.544,28.685,14.344,28.093z M12.624,29.501c-0.22,0.409-0.68,0.47-1.16,0.47h-1.08
		v-1.94h1.08c0.48,0,0.94,0.061,1.16,0.47C12.764,28.747,12.764,29.236,12.624,29.501z"/>
</g>
</svg>
