<?xml version="1.0" encoding="utf-8"?>
<!-- Generator: Adobe Illustrator 17.0.0, SVG Export Plug-In . SVG Version: 6.00 Build 0)  -->
<!DOCTYPE svg PUBLIC "-//W3C//DTD SVG 1.1//EN" "http://www.w3.org/Graphics/SVG/1.1/DTD/svg11.dtd">
<svg version="1.1" id="Layer_1" xmlns="http://www.w3.org/2000/svg" xmlns:xlink="http://www.w3.org/1999/xlink" x="0px" y="0px"
	 width="110.525px" height="76.635px" viewBox="0 0 110.525 76.635" enable-background="new 0 0 110.525 76.635"
	 xml:space="preserve">
<g>
	<path fill="#D6D6D6" d="M43.309,31.791c0-5.562-0.538-10.349-1.613-14.359c-1.075-4.01-2.568-7.303-4.479-9.88
		c-1.912-2.576-4.198-4.47-6.86-5.682c-2.662-1.211-5.58-1.817-8.754-1.817s-6.084,0.606-8.728,1.817
		C10.23,3.08,7.952,4.975,6.041,7.551c-1.912,2.577-3.396,5.87-4.454,9.88C0.529,21.442,0,26.228,0,31.791v13.003
		c0,5.598,0.537,10.401,1.613,14.411c1.075,4.011,2.568,7.304,4.479,9.88c1.911,2.577,4.198,4.479,6.86,5.708
		c2.662,1.229,5.58,1.843,8.754,1.843c3.174,0,6.083-0.614,8.728-1.843c2.644-1.229,4.922-3.131,6.834-5.708
		c1.911-2.576,3.396-5.87,4.454-9.88c1.057-4.01,1.587-8.813,1.587-14.411V31.791z M28.77,46.79c0,3.311-0.162,6.101-0.486,8.37
		c-0.325,2.27-0.794,4.104-1.408,5.503c-0.614,1.4-1.357,2.406-2.227,3.02c-0.87,0.614-1.852,0.921-2.944,0.921
		c-1.126,0-2.133-0.307-3.02-0.921c-0.888-0.614-1.647-1.621-2.278-3.02c-0.632-1.399-1.118-3.233-1.459-5.503
		c-0.342-2.269-0.512-5.059-0.512-8.37V29.692c0-3.276,0.17-6.032,0.512-8.268c0.341-2.235,0.819-4.044,1.433-5.426
		c0.614-1.382,1.365-2.38,2.253-2.995c0.887-0.614,1.877-0.921,2.969-0.921c1.092,0,2.081,0.307,2.969,0.921
		c0.887,0.614,1.638,1.613,2.252,2.995c0.614,1.382,1.092,3.192,1.433,5.426c0.341,2.236,0.512,4.991,0.512,8.268V46.79z"/>
	<path fill="#D6D6D6" d="M53.138,19.351c0,2.082,0.298,4.053,0.896,5.913c0.597,1.861,1.485,3.481,2.662,4.863
		c1.178,1.382,2.637,2.483,4.377,3.302c1.741,0.819,3.771,1.229,6.092,1.229c2.321,0,4.351-0.41,6.092-1.229
		c1.741-0.819,3.191-1.92,4.351-3.302c1.16-1.382,2.03-3.003,2.611-4.863c0.58-1.86,0.87-3.831,0.87-5.913v-3.942
		c0-2.116-0.29-4.103-0.87-5.964c-0.581-1.86-1.459-3.489-2.636-4.889c-1.177-1.399-2.636-2.509-4.377-3.328
		C71.465,0.41,69.417,0,67.062,0c-2.287,0-4.3,0.41-6.041,1.229c-1.741,0.819-3.192,1.929-4.351,3.328
		c-1.161,1.4-2.04,3.029-2.637,4.889c-0.597,1.861-0.896,3.848-0.896,5.964V19.351z M62.557,15.409c0-0.887,0.094-1.741,0.282-2.56
		c0.187-0.819,0.469-1.544,0.845-2.176c0.375-0.631,0.845-1.134,1.408-1.51c0.563-0.375,1.22-0.563,1.971-0.563
		c0.75,0,1.416,0.188,1.996,0.563c0.58,0.376,1.057,0.879,1.433,1.51c0.375,0.632,0.657,1.357,0.845,2.176
		c0.187,0.819,0.282,1.673,0.282,2.56v3.942c0,0.888-0.094,1.733-0.282,2.534c-0.188,0.802-0.461,1.51-0.819,2.125
		c-0.358,0.614-0.819,1.109-1.382,1.485c-0.563,0.376-1.221,0.563-1.971,0.563c-0.785,0-1.459-0.187-2.022-0.563
		c-0.563-0.375-1.041-0.87-1.433-1.485c-0.393-0.614-0.683-1.322-0.87-2.125c-0.188-0.801-0.282-1.646-0.282-2.534V15.409z
		 M82.522,61.329c0,2.117,0.298,4.095,0.896,5.938c0.597,1.843,1.485,3.464,2.662,4.863c1.177,1.4,2.644,2.5,4.403,3.302
		c1.757,0.801,3.796,1.203,6.118,1.203c2.321,0,4.351-0.401,6.092-1.203c1.741-0.802,3.191-1.902,4.351-3.302
		c1.16-1.399,2.03-3.02,2.611-4.863c0.58-1.843,0.87-3.822,0.87-5.938v-3.993c0-2.081-0.29-4.061-0.87-5.938
		c-0.581-1.876-1.459-3.507-2.636-4.889c-1.177-1.382-2.636-2.483-4.377-3.302c-1.741-0.819-3.788-1.229-6.143-1.229
		c-2.287,0-4.3,0.41-6.041,1.229c-1.741,0.819-3.2,1.92-4.377,3.302c-1.177,1.382-2.065,3.012-2.662,4.889
		c-0.597,1.877-0.896,3.857-0.896,5.938V61.329z M91.993,57.336c0-0.887,0.094-1.741,0.282-2.56c0.187-0.819,0.461-1.536,0.819-2.15
		c0.358-0.614,0.819-1.109,1.382-1.485c0.563-0.375,1.237-0.563,2.022-0.563c0.75,0,1.416,0.188,1.996,0.563
		c0.58,0.376,1.058,0.87,1.433,1.485c0.375,0.614,0.657,1.331,0.845,2.15c0.187,0.819,0.282,1.673,0.282,2.56v3.993
		c0,0.888-0.06,1.741-0.179,2.56c-0.12,0.819-0.342,1.536-0.666,2.15c-0.325,0.614-0.777,1.11-1.357,1.485
		c-0.581,0.376-1.331,0.563-2.253,0.563c-0.683,0-1.305-0.187-1.868-0.563c-0.563-0.375-1.049-0.87-1.459-1.485
		c-0.41-0.614-0.725-1.331-0.947-2.15c-0.222-0.819-0.333-1.672-0.333-2.56V57.336z M100.389,11.774l-6.911-3.891L62.916,66.141
		l6.86,3.891L100.389,11.774z"/>
</g>
</svg>
