<?xml version="1.0" encoding="utf-8"?>
<!-- Generator: Adobe Illustrator 17.0.0, SVG Export Plug-In . SVG Version: 6.00 Build 0)  -->
<!DOCTYPE svg PUBLIC "-//W3C//DTD SVG 1.1//EN" "http://www.w3.org/Graphics/SVG/1.1/DTD/svg11.dtd">
<svg version="1.1" id="Layer_1" xmlns="http://www.w3.org/2000/svg" xmlns:xlink="http://www.w3.org/1999/xlink" x="0px" y="0px"
	 width="103.011px" height="102.997px" viewBox="0 0 103.011 102.997" enable-background="new 0 0 103.011 102.997"
	 xml:space="preserve">
<g>
	<path fill="#D6D6D6" d="M79.197,0c-7.476,0-14.178,3.473-18.536,8.883c-0.849,1.051-0.685,2.591,0.366,3.44
		c1.051,0.849,2.591,0.685,3.44-0.366c0,0,0-0.001,0.001-0.001c3.469-4.306,8.756-7.08,14.729-7.08
		c10.474,0,18.937,8.429,18.937,18.901c0,10.472-8.463,18.935-18.937,18.935c-5.553,0-10.499-2.382-13.961-6.178
		c-0.853-1.042-2.389-1.196-3.431-0.344c-1.043,0.852-1.197,2.389-0.344,3.431c0.053,0.065,0.109,0.127,0.168,0.186
		c1.697,1.861,3.703,3.424,5.911,4.675c-2.542,1.878-6.072,1.676-8.383-0.634c-2.55-2.55-2.55-6.6,0-9.15
		c2.55-2.55,6.601-2.55,9.152,0c0.667,0.667,1.154,1.418,1.469,2.237c0.384,1.291,1.741,2.026,3.032,1.642
		c1.291-0.384,2.026-1.741,1.642-3.032c-0.035-0.119-0.08-0.235-0.133-0.347c-0.554-1.439-1.417-2.786-2.572-3.941
		c-2.207-2.206-5.105-3.306-8.016-3.306c-2.911,0-5.809,1.1-8.016,3.306c-4.413,4.413-4.413,11.616,0,16.029
		c4.414,4.413,11.618,4.413,16.031,0c0.226-0.226,0.43-0.465,0.635-0.701c2.159,0.648,4.448,1.002,6.813,1.002
		c1.382,0,2.722-0.139,4.041-0.367v6.879L40.221,97.111L5.887,62.748l42.984-42.979h21.977l12.424,12.423l-0.033,4.508
		c-0.033,1.346,1.032,2.464,2.378,2.497c1.347,0.033,2.465-1.032,2.497-2.378c0.001-0.029,0.001-0.057,0.001-0.086l0.033-5.577
		c-0.011-0.642-0.275-1.254-0.735-1.703L73.586,15.595c-0.463-0.456-1.087-0.708-1.737-0.701h-23.98
		c-0.089-0.005-0.178-0.005-0.267,0c-0.556,0.059-1.074,0.306-1.469,0.701L0.71,61.045c-0.947,0.951-0.947,2.488,0,3.44
		l37.808,37.803c0.951,0.947,2.489,0.947,3.44,0L87.38,56.871c0.468-0.457,0.733-1.083,0.735-1.736V45.85
		c8.718-3.543,14.896-12.115,14.896-22.074C103.011,10.669,92.307,0,79.197,0L79.197,0z"/>
</g>
</svg>
