<?xml version="1.0" encoding="utf-8"?>
<!-- Generator: Adobe Illustrator 17.0.0, SVG Export Plug-In . SVG Version: 6.00 Build 0)  -->
<!DOCTYPE svg PUBLIC "-//W3C//DTD SVG 1.1//EN" "http://www.w3.org/Graphics/SVG/1.1/DTD/svg11.dtd">
<svg version="1.1" id="Layer_1" xmlns="http://www.w3.org/2000/svg" xmlns:xlink="http://www.w3.org/1999/xlink" x="0px" y="0px"
	 width="80.978px" height="80.986px" viewBox="0 0 80.978 80.986" enable-background="new 0 0 80.978 80.986" xml:space="preserve">
<g>
	<path fill="#D6D6D6" d="M78.724,0H51.097c-1.247,0-2.255,1.008-2.255,2.255v14.637H37.639c-1.247,0-2.255,1.008-2.255,2.256
		c0,1.249,1.007,2.75,2.255,2.75h14.033c1.247,0,2.255-1.007,2.255-2.256V5.087h21.97v23.585H54.109
		c-1.247,0-1.844,1.337-1.844,2.585c0,1.248,0.597,2.503,1.844,2.503h3.224v11.217c0,1.248,1.228,2.256,2.475,2.256
		c1.247,0,2.622-1.008,2.622-2.256V33.76h13.48v42.183H52.318v-14.69c0-1.246-1.254-2.255-2.501-2.255
		c-1.247,0-2.583,1.008-2.583,2.255v14.617H37.101V49.496c0-1.247-1.007-2.255-2.255-2.255h-9.695c-1.247,0-1.68,1.173-1.68,2.42
		c0,1.248,0.433,2.584,1.68,2.584h6.62v23.64H5.097v-9.998h10.041v4.443c0,1.249,1.336,2.256,2.583,2.256
		c1.247,0,2.501-1.007,2.501-2.256v-7.355c0-1.249-1.007-2.256-2.255-2.256H5.023V38.822h30.234c1.247,0,2.034-1.228,2.034-2.477
		c0-1.248-0.787-2.625-2.034-2.625H25.26V19.065c0-1.248-1.336-2.255-2.583-2.255c-1.247,0-2.419,1.007-2.419,2.255v14.656H2.254
		C1.007,33.721,0,34.729,0,35.977V78.73c0,1.247,1.007,2.256,2.254,2.256h76.47c1.247,0,2.254-1.009,2.254-2.256V2.255
		C80.978,1.008,79.971,0,78.724,0z"/>
</g>
</svg>
