<?xml version="1.0" encoding="utf-8"?>
<!-- Generator: Adobe Illustrator 17.0.0, SVG Export Plug-In . SVG Version: 6.00 Build 0)  -->
<!DOCTYPE svg PUBLIC "-//W3C//DTD SVG 1.1//EN" "http://www.w3.org/Graphics/SVG/1.1/DTD/svg11.dtd">
<svg version="1.1" id="Layer_1" xmlns="http://www.w3.org/2000/svg" xmlns:xlink="http://www.w3.org/1999/xlink" x="0px" y="0px"
	 width="44.149px" height="44.149px" viewBox="0 0 44.149 44.149" enable-background="new 0 0 44.149 44.149" xml:space="preserve">
<g>
	<circle fill="#6988AB" cx="22.075" cy="22.075" r="22.075"/>
	<path fill-rule="evenodd" clip-rule="evenodd" fill="#FFFFFF" d="M21.796,30.407h1.549c0,0,0.468-0.052,0.707-0.309
		c0.22-0.237,0.213-0.681,0.213-0.681s-0.03-2.079,0.934-2.385c0.951-0.302,2.173,2.009,3.467,2.898
		c0.979,0.672,1.723,0.525,1.723,0.525l3.462-0.048c0,0,1.811-0.112,0.952-1.536c-0.07-0.116-0.5-1.053-2.574-2.978
		c-2.171-2.015-1.88-1.689,0.735-5.174c1.592-2.122,2.229-3.418,2.03-3.973c-0.19-0.529-1.361-0.389-1.361-0.389l-3.898,0.024
		c0,0-0.289-0.039-0.503,0.089c-0.209,0.125-0.344,0.418-0.344,0.418s-0.617,1.642-1.44,3.039c-1.736,2.947-2.43,3.103-2.713,2.92
		c-0.66-0.427-0.495-1.713-0.495-2.628c0-2.856,0.433-4.047-0.844-4.355c-0.424-0.102-0.736-0.17-1.819-0.181
		c-1.391-0.014-2.568,0.004-3.234,0.331c-0.443,0.217-0.786,0.701-0.577,0.729c0.258,0.034,0.841,0.157,1.15,0.578
		c0.4,0.544,0.385,1.764,0.385,1.764s0.23,3.362-0.536,3.78c-0.525,0.286-1.246-0.298-2.793-2.972
		c-0.793-1.37-1.391-2.884-1.391-2.884s-0.115-0.283-0.321-0.434c-0.25-0.183-0.599-0.242-0.599-0.242l-3.704,0.024
		c0,0-0.556,0.016-0.76,0.257c-0.182,0.215-0.015,0.66-0.015,0.66s2.9,6.784,6.183,10.203
		C18.378,30.613,21.796,30.407,21.796,30.407L21.796,30.407z"/>
</g>
</svg>
