<?xml version="1.0" standalone="no"?>
<!DOCTYPE svg PUBLIC "-//W3C//DTD SVG 20010904//EN"
 "http://www.w3.org/TR/2001/REC-SVG-20010904/DTD/svg10.dtd">
<svg version="1.0" xmlns="http://www.w3.org/2000/svg"
 width="300.000000pt" height="300.000000pt" viewBox="0 0 300.000000 300.000000"
 preserveAspectRatio="xMidYMid meet">
<metadata>
Created by potrace 1.11, written by Peter Selinger 2001-2013
</metadata>
<g transform="translate(0.000000,300.000000) scale(0.100000,-0.100000)"
fill="#000000" stroke="none">
<path d="M0 1500 l0 -1500 1500 0 1500 0 0 1500 0 1500 -1500 0 -1500 0 0
-1500z m1622 603 c109 -113 172 -205 204 -303 25 -75 25 -220 0 -320 -17 -67
-17 -79 -5 -105 15 -31 43 -41 84 -31 27 7 49 57 60 136 13 95 30 123 123 201
204 170 397 260 552 258 30 -1 66 -4 78 -8 22 -6 17 -11 -50 -56 -97 -66 -253
-222 -315 -315 -98 -146 -163 -302 -202 -483 -12 -53 -21 -99 -21 -102 0 -3
-281 -5 -625 -5 -344 0 -625 2 -625 5 0 3 -9 49 -21 102 -39 181 -104 337
-202 483 -62 93 -218 249 -315 315 -67 45 -72 50 -50 56 12 4 48 7 78 8 155 2
348 -88 552 -258 93 -78 110 -106 123 -201 11 -79 33 -129 60 -136 41 -10 69
0 84 31 12 26 12 38 -5 105 -25 100 -25 245 0 320 32 98 95 190 204 303 58 59
110 107 117 107 7 0 59 -48 117 -107z"/>
<path d="M1467 1822 c-14 -15 -40 -58 -58 -96 -45 -96 -45 -165 -1 -257 32
-66 72 -119 91 -119 15 0 69 76 93 130 31 70 34 135 9 203 -22 65 -75 152 -95
160 -8 3 -25 -7 -39 -21z"/>
</g>
</svg>
